# Blender 4.2.3 LTS
# www.blender.org
mtllib 0.mtl
o Text
v 0.440662 0.000000 -0.196872
v 0.372585 0.000000 -0.265869
v 0.372585 0.000000 -0.449862
v 0.415823 0.000000 -0.493100
v 0.440662 0.000000 -0.466421
v 0.427783 0.000000 -0.183993
v 0.068077 0.000000 -0.183993
v 0.136155 0.000000 -0.252990
v 0.359706 0.000000 -0.252990
v 0.124195 0.000000 -0.265869
v 0.055198 0.000000 -0.196872
v 0.055198 0.000000 -0.466421
v 0.080957 0.000000 -0.493100
v 0.124195 0.000000 -0.449862
v 0.440662 0.000000 -0.544618
v 0.415823 0.000000 -0.518859
v 0.372585 0.000000 -0.562097
v 0.372585 0.000000 -0.746090
v 0.440662 0.000000 -0.815087
v 0.427783 0.000000 -0.827967
v 0.359706 0.000000 -0.758970
v 0.136155 0.000000 -0.758970
v 0.068077 0.000000 -0.827967
v 0.124195 0.000000 -0.562097
v 0.080957 0.000000 -0.518859
v 0.055198 0.000000 -0.544618
v 0.055198 0.000000 -0.815087
v 0.124195 0.000000 -0.746090
vn -0.0000 1.0000 -0.0000
vt 0.777778 0.000000
vt 0.703704 0.000000
vt 0.814815 0.000000
vt 0.740741 0.000000
vt 0.925926 0.000000
vt 1.000000 0.000000
vt 0.962963 0.000000
vt 0.629630 0.000000
vt 0.518519 0.000000
vt 0.666667 0.000000
vt 0.851852 0.000000
vt 0.592593 0.000000
vt 0.888889 0.000000
vt 0.555556 0.000000
vt 0.407407 0.000000
vt 0.481481 0.000000
vt 0.444444 0.000000
vt 0.074074 0.000000
vt 0.148148 0.000000
vt 0.111111 0.000000
vt 0.370370 0.000000
vt 0.000000 0.000000
vt 0.333333 0.000000
vt 0.037037 0.000000
vt 0.222222 0.000000
vt 0.296296 0.000000
vt 0.259259 0.000000
vt 0.185185 0.000000
s 0
f 22/1/1 20/2/1 23/3/1
f 22/1/1 21/4/1 20/2/1
f 26/5/1 28/6/1 27/7/1
f 18/8/1 15/9/1 19/10/1
f 26/5/1 24/11/1 28/6/1
f 17/12/1 15/9/1 18/8/1
f 26/5/1 25/13/1 24/11/1
f 16/14/1 15/9/1 17/12/1
f 12/15/1 14/16/1 13/17/1
f 3/18/1 5/19/1 4/20/1
f 11/21/1 14/16/1 12/15/1
f 3/18/1 1/22/1 5/19/1
f 11/21/1 10/23/1 14/16/1
f 2/24/1 1/22/1 3/18/1
f 7/25/1 9/26/1 8/27/1
f 7/25/1 6/28/1 9/26/1
