# Blender 4.2.3 LTS
# www.blender.org
mtllib l.mtl
o Text
v 0.055198 0.000000 -0.544618
v 0.055198 0.000000 -0.827967
v 0.124195 0.000000 -0.758970
v 0.124195 0.000000 -0.562097
v 0.080957 0.000000 -0.518859
v 0.440662 0.000000 -0.183993
v 0.068077 0.000000 -0.183993
v 0.136155 0.000000 -0.252990
v 0.372585 0.000000 -0.252990
v 0.124195 0.000000 -0.449862
v 0.124195 0.000000 -0.265869
v 0.055198 0.000000 -0.196872
v 0.055198 0.000000 -0.466421
v 0.080957 0.000000 -0.493100
vn -0.0000 1.0000 -0.0000
vt 0.923077 0.000000
vt 0.692308 0.000000
vt 1.000000 0.000000
vt 0.846154 0.000000
vt 0.769231 0.000000
vt 0.461538 0.000000
vt 0.615385 0.000000
vt 0.538462 0.000000
vt 0.384615 0.000000
vt 0.000000 0.000000
vt 0.153846 0.000000
vt 0.076923 0.000000
vt 0.230769 0.000000
vt 0.307692 0.000000
s 0
f 13/1/1 10/2/1 14/3/1
f 12/4/1 10/2/1 13/1/1
f 12/4/1 11/5/1 10/2/1
f 7/6/1 9/7/1 8/8/1
f 7/6/1 6/9/1 9/7/1
f 1/10/1 3/11/1 2/12/1
f 1/10/1 4/13/1 3/11/1
f 1/10/1 5/14/1 4/13/1
