# Blender 4.2.3 LTS
# www.blender.org
mtllib t.mtl
o Text
v 0.282429 0.000000 -0.509660
v 0.256670 0.000000 -0.484821
v 0.213431 0.000000 -0.527139
v 0.213431 0.000000 -0.712052
v 0.247470 0.000000 -0.746090
v 0.282429 0.000000 -0.712052
v 0.440662 0.000000 -0.827967
v 0.372585 0.000000 -0.758970
v 0.124195 0.000000 -0.758970
v 0.055198 0.000000 -0.827967
v 0.282429 0.000000 -0.218031
v 0.247470 0.000000 -0.183993
v 0.213431 0.000000 -0.218031
v 0.213431 0.000000 -0.415823
v 0.256670 0.000000 -0.459062
v 0.282429 0.000000 -0.433303
vn -0.0000 1.0000 -0.0000
vt 0.533333 0.000000
vt 0.400000 0.000000
vt 0.600000 0.000000
vt 0.466667 0.000000
vt 0.866667 0.000000
vt 1.000000 0.000000
vt 0.933333 0.000000
vt 0.666667 0.000000
vt 0.800000 0.000000
vt 0.733333 0.000000
vt 0.200000 0.000000
vt 0.333333 0.000000
vt 0.266667 0.000000
vt 0.133333 0.000000
vt 0.000000 0.000000
vt 0.066667 0.000000
s 0
f 9/1/1 7/2/1 10/3/1
f 9/1/1 8/4/1 7/2/1
f 14/5/1 16/6/1 15/7/1
f 14/5/1 11/8/1 16/6/1
f 13/9/1 11/8/1 14/5/1
f 12/10/1 11/8/1 13/9/1
f 4/11/1 6/12/1 5/13/1
f 3/14/1 6/12/1 4/11/1
f 3/14/1 1/15/1 6/12/1
f 2/16/1 1/15/1 3/14/1
