# Blender 4.2.3 LTS
# www.blender.org
mtllib u.mtl
o Text
v 0.372585 0.000000 -0.562097
v 0.372585 0.000000 -0.758970
v 0.440662 0.000000 -0.827967
v 0.440662 0.000000 -0.544618
v 0.415823 0.000000 -0.518859
v 0.440662 0.000000 -0.265869
v 0.406624 0.000000 -0.230911
v 0.372585 0.000000 -0.265869
v 0.372585 0.000000 -0.449862
v 0.415823 0.000000 -0.493100
v 0.440662 0.000000 -0.466421
v 0.055198 0.000000 -0.265869
v 0.089236 0.000000 -0.230911
v 0.124195 0.000000 -0.265869
v 0.124195 0.000000 -0.449862
v 0.080957 0.000000 -0.493100
v 0.055198 0.000000 -0.466421
v 0.136155 0.000000 -0.183993
v 0.102116 0.000000 -0.218031
v 0.136155 0.000000 -0.252990
v 0.359706 0.000000 -0.252990
v 0.393744 0.000000 -0.218031
v 0.359706 0.000000 -0.183993
v 0.055198 0.000000 -0.544618
v 0.055198 0.000000 -0.827967
v 0.124195 0.000000 -0.758970
v 0.124195 0.000000 -0.562097
v 0.080957 0.000000 -0.518859
vn -0.0000 1.0000 -0.0000
vt 0.592593 0.000000
vt 0.518519 0.000000
vt 0.555556 0.000000
vt 0.296296 0.000000
vt 0.370370 0.000000
vt 0.333333 0.000000
vt 0.407407 0.000000
vt 0.185185 0.000000
vt 0.481481 0.000000
vt 0.259259 0.000000
vt 0.444444 0.000000
vt 0.222222 0.000000
vt 0.666667 0.000000
vt 0.740741 0.000000
vt 0.703704 0.000000
vt 0.777778 0.000000
vt 0.629630 0.000000
vt 0.814815 0.000000
vt 0.851852 0.000000
vt 0.925926 0.000000
vt 0.888889 0.000000
vt 0.962963 0.000000
vt 1.000000 0.000000
vt 0.037037 0.000000
vt 0.111111 0.000000
vt 0.074074 0.000000
vt 0.000000 0.000000
vt 0.148148 0.000000
s 0
f 17/1/1 15/2/1 16/3/1
f 9/4/1 11/5/1 10/6/1
f 12/7/1 15/2/1 17/1/1
f 9/4/1 6/8/1 11/5/1
f 12/7/1 14/9/1 15/2/1
f 8/10/1 6/8/1 9/4/1
f 13/11/1 14/9/1 12/7/1
f 7/12/1 6/8/1 8/10/1
f 19/13/1 21/14/1 20/15/1
f 19/13/1 22/16/1 21/14/1
f 18/17/1 22/16/1 19/13/1
f 18/17/1 23/18/1 22/16/1
f 24/19/1 26/20/1 25/21/1
f 24/19/1 27/22/1 26/20/1
f 24/19/1 28/23/1 27/22/1
f 2/24/1 4/25/1 3/26/1
f 1/27/1 4/25/1 2/24/1
f 5/28/1 4/25/1 1/27/1
