# Blender 4.2.3 LTS
# www.blender.org
mtllib w.mtl
o Text
v 0.282429 0.000000 -0.303588
v 0.247470 0.000000 -0.269549
v 0.213431 0.000000 -0.303588
v 0.213431 0.000000 -0.458142
v 0.247470 0.000000 -0.493100
v 0.282429 0.000000 -0.458142
v 0.440662 0.000000 -0.544618
v 0.415823 0.000000 -0.518859
v 0.372585 0.000000 -0.562097
v 0.372585 0.000000 -0.758970
v 0.440662 0.000000 -0.827967
v 0.124195 0.000000 -0.562097
v 0.080957 0.000000 -0.518859
v 0.055198 0.000000 -0.544618
v 0.055198 0.000000 -0.827967
v 0.124195 0.000000 -0.758970
v 0.440662 0.000000 -0.196872
v 0.372585 0.000000 -0.265869
v 0.372585 0.000000 -0.449862
v 0.415823 0.000000 -0.493100
v 0.440662 0.000000 -0.466421
v 0.427783 0.000000 -0.183993
v 0.068077 0.000000 -0.183993
v 0.136155 0.000000 -0.252990
v 0.359706 0.000000 -0.252990
v 0.124195 0.000000 -0.265869
v 0.055198 0.000000 -0.196872
v 0.055198 0.000000 -0.466421
v 0.080957 0.000000 -0.493100
v 0.124195 0.000000 -0.449862
vn -0.0000 1.0000 -0.0000
vt 0.310345 0.000000
vt 0.206897 0.000000
vt 0.344828 0.000000
vt 0.275862 0.000000
vt 0.241379 0.000000
vt 0.448276 0.000000
vt 0.517241 0.000000
vt 0.482759 0.000000
vt 0.379310 0.000000
vt 0.413793 0.000000
vt 0.931035 0.000000
vt 1.000000 0.000000
vt 0.965517 0.000000
vt 0.620690 0.000000
vt 0.689655 0.000000
vt 0.655172 0.000000
vt 0.896552 0.000000
vt 0.551724 0.000000
vt 0.862069 0.000000
vt 0.586207 0.000000
vt 0.758621 0.000000
vt 0.827586 0.000000
vt 0.793103 0.000000
vt 0.724138 0.000000
vt 0.103448 0.000000
vt 0.172414 0.000000
vt 0.137931 0.000000
vt 0.068966 0.000000
vt 0.000000 0.000000
vt 0.034483 0.000000
s 0
f 10/1/1 7/2/1 11/3/1
f 9/4/1 7/2/1 10/1/1
f 8/5/1 7/2/1 9/4/1
f 14/6/1 16/7/1 15/8/1
f 14/6/1 12/9/1 16/7/1
f 14/6/1 13/10/1 12/9/1
f 28/11/1 30/12/1 29/13/1
f 19/14/1 21/15/1 20/16/1
f 27/17/1 30/12/1 28/11/1
f 19/14/1 17/18/1 21/15/1
f 27/17/1 26/19/1 30/12/1
f 18/20/1 17/18/1 19/14/1
f 23/21/1 25/22/1 24/23/1
f 23/21/1 22/24/1 25/22/1
f 4/25/1 6/26/1 5/27/1
f 3/28/1 6/26/1 4/25/1
f 3/28/1 1/29/1 6/26/1
f 2/30/1 1/29/1 3/28/1
