# Blender 4.2.3 LTS
# www.blender.org
mtllib y.mtl
o Text
v 0.440662 0.000000 -0.544618
v 0.415823 0.000000 -0.518859
v 0.372585 0.000000 -0.562097
v 0.372585 0.000000 -0.758970
v 0.440662 0.000000 -0.827967
v 0.055198 0.000000 -0.544618
v 0.080957 0.000000 -0.518859
v 0.124195 0.000000 -0.562097
v 0.124195 0.000000 -0.758970
v 0.055198 0.000000 -0.827967
v 0.136155 0.000000 -0.183993
v 0.102116 0.000000 -0.218031
v 0.136155 0.000000 -0.252990
v 0.359706 0.000000 -0.252990
v 0.393744 0.000000 -0.218031
v 0.359706 0.000000 -0.183993
v 0.440662 0.000000 -0.265869
v 0.406624 0.000000 -0.230911
v 0.372585 0.000000 -0.265869
v 0.372585 0.000000 -0.449862
v 0.415823 0.000000 -0.493100
v 0.440662 0.000000 -0.466421
v 0.367985 0.000000 -0.540018
v 0.402944 0.000000 -0.505980
v 0.367985 0.000000 -0.471941
v 0.127875 0.000000 -0.471941
v 0.093836 0.000000 -0.505980
v 0.127875 0.000000 -0.540018
vn -0.0000 1.0000 -0.0000
vt 0.185185 0.000000
vt 0.296296 0.000000
vt 0.333333 0.000000
vt 0.111111 0.000000
vt 0.000000 0.000000
vt 0.148148 0.000000
vt 0.259259 0.000000
vt 0.074074 0.000000
vt 0.222222 0.000000
vt 0.037037 0.000000
vt 0.962963 0.000000
vt 0.814815 0.000000
vt 1.000000 0.000000
vt 0.851852 0.000000
vt 0.925926 0.000000
vt 0.888889 0.000000
vt 0.703704 0.000000
vt 0.777778 0.000000
vt 0.740741 0.000000
vt 0.592593 0.000000
vt 0.666667 0.000000
vt 0.629630 0.000000
vt 0.407407 0.000000
vt 0.481481 0.000000
vt 0.444444 0.000000
vt 0.518519 0.000000
vt 0.370370 0.000000
vt 0.555556 0.000000
s 0
f 6/1/1 9/2/1 10/3/1
f 4/4/1 1/5/1 5/6/1
f 6/1/1 8/7/1 9/2/1
f 3/8/1 1/5/1 4/4/1
f 6/1/1 7/9/1 8/7/1
f 2/10/1 1/5/1 3/8/1
f 27/11/1 23/12/1 28/13/1
f 27/11/1 24/14/1 23/12/1
f 26/15/1 24/14/1 27/11/1
f 26/15/1 25/16/1 24/14/1
f 20/17/1 22/18/1 21/19/1
f 20/17/1 17/20/1 22/18/1
f 19/21/1 17/20/1 20/17/1
f 18/22/1 17/20/1 19/21/1
f 12/23/1 14/24/1 13/25/1
f 12/23/1 15/26/1 14/24/1
f 11/27/1 15/26/1 12/23/1
f 11/27/1 16/28/1 15/26/1
